# xmcd CD database file
#
# Track frame offsets:
#	150
#	27820
#	61061
#	85853
#	135098
#	152636
#	205652
#	222704
#	245442
#
# Disc length: 3534 seconds
#
# Revision: 0
# Processed by: cddbd v1.5PL3 Copyright (c) Steve Scherf et al.
# Submitted via: CDex 1.50
#
DISCID=6e0dcc09
DTITLE=Kenny Wayne Shepherd - Multiplicity [CD1]
DYEAR=2004
DGENRE=Blues
TTITLE0=Ledbetter Heights
TTITLE1=Everybody Gets The Blues
TTITLE2=What's Going Down
TTITLE3=Shame, Shame, Shame
TTITLE4=One Foot On The Path
TTITLE5=Ridin' Moonlight
TTITLE6=Riverside
TTITLE7=Amberdeen
TTITLE8=Born With A Broken Heart
EXTD=YEAR: 2004
EXTT0=
EXTT1=
EXTT2=
EXTT3=
EXTT4=
EXTT5=
EXTT6=
EXTT7=
EXTT8=
PLAYORDER=
